<svg width="16" height="16" viewBox="0 0 16 16" xmlns="http://www.w3.org/2000/svg" fill="currentColor"><path fill-rule="evenodd" clip-rule="evenodd" d="M9.588 2.215A5.808 5.808 0 0 0 8 2c-.554 0-1.082.073-1.588.215l-.006.002c-.514.141-.99.342-1.432.601A6.156 6.156 0 0 0 2.82 4.98l-.002.004A5.967 5.967 0 0 0 2.21 6.41 5.986 5.986 0 0 0 2 8c0 .555.07 1.085.21 1.591a6.05 6.05 0 0 0 1.548 2.651c.37.365.774.677 1.216.94a6.1 6.1 0 0 0 1.435.609A6.02 6.02 0 0 0 8 14c.555 0 1.085-.07 1.591-.21.515-.145.99-.348 1.426-.607l.004-.002a6.16 6.16 0 0 0 2.161-2.155 5.85 5.85 0 0 0 .6-1.432l.003-.006A5.807 5.807 0 0 0 14 8c0-.554-.072-1.082-.215-1.588l-.002-.006a5.772 5.772 0 0 0-.6-1.423l-.002-.004a5.9 5.9 0 0 0-.942-1.21l-.008-.008a5.902 5.902 0 0 0-1.21-.942l-.004-.002a5.772 5.772 0 0 0-1.423-.6l-.006-.002zm4.455 9.32a7.157 7.157 0 0 1-2.516 2.508 6.966 6.966 0 0 1-1.668.71A6.984 6.984 0 0 1 8 15a6.984 6.984 0 0 1-1.86-.246 7.098 7.098 0 0 1-1.674-.711 7.3 7.3 0 0 1-1.415-1.094 7.295 7.295 0 0 1-1.094-1.415 7.098 7.098 0 0 1-.71-1.675A6.985 6.985 0 0 1 1 8c0-.643.082-1.262.246-1.86a6.968 6.968 0 0 1 .711-1.667 7.156 7.156 0 0 1 2.509-2.516 6.895 6.895 0 0 1 1.675-.704A6.808 6.808 0 0 1 8 1a6.8 6.8 0 0 1 1.86.253 6.899 6.899 0 0 1 3.083 1.805 6.903 6.903 0 0 1 1.804 3.083C14.916 6.738 15 7.357 15 8s-.084 1.262-.253 1.86a6.9 6.9 0 0 1-.704 1.674z"/></svg>