<?xml version="1.0" encoding="UTF-8" standalone="no"?> <!-- Created with Vectornator for iOS (http://vectornator.io/) --><!DOCTYPE svg PUBLIC "-//W3C//DTD SVG 1.1//EN" "http://www.w3.org/Graphics/SVG/1.1/DTD/svg11.dtd">
<svg xml:space="preserve" viewBox="0 0 1024 1024" xmlns:vectornator="http://vectornator.io" xmlns="http://www.w3.org/2000/svg" width="100%" height="100%" xmlns:xlink="http://www.w3.org/1999/xlink" version="1.1" style="fill-rule:nonzero;clip-rule:evenodd;stroke-linecap:round;stroke-linejoin:round;">
<metadata>
<vectornator:setting key="IsTimeLapseWatermarkDisabled" value="false"/>
<vectornator:setting key="WDSnapToEdges" value="false"/>
<vectornator:setting value="false" key="WDIsolateActiveLayer"/>
<vectornator:setting value="false" key="WDDynamicGuides"/>
<vectornator:setting key="WDSnapToGrid" value="false"/>
<vectornator:setting key="UndoHistoryDisabled" value="false"/>
<vectornator:setting value="Pixels" key="WDUnits"/>
<vectornator:setting key="WDGuidesVisible" value="true"/>
<vectornator:setting value="false" key="WDSnapToPoints"/>
<vectornator:setting key="WDDisplayWhiteBackground" value="false"/>
<vectornator:setting key="VNPencilOnly" value="false"/>
<vectornator:setting key="VNSnapToGuides" value="true"/>
<vectornator:setting key="WDOutlineMode" value="false"/>
<vectornator:setting value="false" key="WDCMYKEnabledKey"/>
<vectornator:setting key="WDRulersVisible" value="true"/>
<vectornator:setting value="true" key="VNDimensionsVisible"/>
</metadata>
<defs/>
<g vectornator:layerName="Layer 1" id="Layer 1">
<g opacity="1">
<path opacity="1" fill-rule="evenodd" d="M160.8+298L864.797+298L864.797+298L864.797+328.4L864.797+328.4L160.8+328.4L160.8+328.4L160.8+298L160.8+298Z" fill="#000000"/>
<path opacity="1" fill-rule="evenodd" d="M178.4+246L847.201+246L847.201+246L847.201+276.4L847.201+276.4L178.4+276.4L178.4+276.4L178.4+246L178.4+246Z" fill="#000000"/>
<path fill-rule="evenodd" opacity="1" d="M1007.2+408.398L943.999+408.398L943.999+145.2C943.999+138+938.399+131.6+930.399+131.6L398.4+131.6C393.6+131.6+389.6+129.2+387.2+125.2L343.2+51.6004C340.8+47.6003+336.8+45.2003+332+45.2003L94.4+45.2003C87.1999+45.2003+80.7998+51.6004+80.7998+58.8001L80.7998+408.398L16.8+408.398C13.6+408.398+12+410.798+12+413.998L96.8+974.8C96.8+977.2+99.2001+978.8+101.6+978.8L922.398+978.8C924.799+978.8+926.398+977.2+927.199+974.8L1012+413.998C1012+410.798+1010.4+408.398+1007.2+408.398ZM805.601+857.202L477.599+857.202L463.199+723.6L824.001+723.6L805.601+857.202ZM903.198+408.398L122.4+408.398L122.4+328.4L139.2+328.4L139.2+276.4L156.8+276.4L156.8+224.4L868.798+224.4L868.798+276.4L886.398+276.4L886.398+328.4L903.998+328.4L903.998+408.398L903.198+408.398Z" fill="#000000"/>
</g>
</g>
</svg>
