<svg xmlns="http://www.w3.org/2000/svg" width="64" height="64" viewBox="0 0 32 32"><path d="M15 3.77a.951.951 0 1 1 1.902 0 .951.951 0 0 1-1.902 0m-11.346 8.61a.951.951 0 1 1 1.902 0 .951.951 0 0 1-1.902 0m22.692.044a.951.951 0 0 1 1.902 0 .951.951 0 0 1-1.902 0M6.406 13.73a.87.87 0 0 0 .441-1.146l-.422-.954h1.66v7.48H4.736a11.71 11.71 0 0 1-.379-4.47zm6.942.184v-2.205H17.3c.204 0 1.44.236 1.44 1.16 0 .768-.95 1.044-1.73 1.044zM7.952 25.785a.951.951 0 1 1 1.902 0 .951.951 0 0 1-1.902 0m14.093.044a.951.951 0 0 1 1.902 0 .951.951 0 0 1-1.902 0m.294-2.157c-.47-.1-.93.198-1.03.667l-.477 2.228a11.71 11.71 0 0 1-9.765-.047l-.477-2.228c-.1-.47-.56-.768-1.03-.667l-1.967.422a11.71 11.71 0 0 1-1.017-1.199h9.57c.108 0 .18-.02.18-.118v-3.385c0-.1-.072-.118-.18-.118h-2.8v-2.146h3.027c.276 0 1.477.08 1.862 1.614l.565 2.5c.18.55.913 1.653 1.693 1.653h4.94a11.71 11.71 0 0 1-1.085 1.255zm5.314-8.938a11.71 11.71 0 0 1 .025 2.033h-1.2c-.12 0-.17.08-.17.197v.552c0 1.3-.732 1.58-1.374 1.653-.61.07-1.29-.256-1.372-.63-.36-2.028-.96-2.46-1.9-3.21 1.177-.748 2.402-1.85 2.402-3.327 0-1.594-1.093-2.598-1.838-3.09-1.045-.69-2.202-.827-2.514-.827H7.277a11.71 11.71 0 0 1 6.551-3.697l1.465 1.537c.33.347.88.36 1.226.028l1.64-1.567a11.71 11.71 0 0 1 8.017 5.709l-1.122 2.534a.87.87 0 0 0 .441 1.146zm2.798.04l-.038-.392 1.156-1.078c.235-.22.147-.66-.153-.772l-1.477-.552-.116-.38.92-1.28c.188-.26.015-.675-.3-.727l-1.558-.253-.187-.35.655-1.437c.134-.293-.115-.667-.437-.655l-1.58.055-.25-.303.363-1.54c.073-.313-.244-.63-.557-.557l-1.54.363-.304-.25.055-1.58c.012-.32-.362-.57-.654-.437l-1.436.655-.35-.188-.254-1.558c-.05-.316-.467-.488-.727-.3l-1.28.92-.38-.115-.552-1.477c-.112-.3-.553-.388-.772-.154l-1.078 1.156-.392-.038-.832-1.345c-.168-.272-.62-.272-.787 0l-.832 1.345-.392.038L13.305.43c-.22-.234-.66-.147-.772.154l-.552 1.477-.38.115-1.28-.92c-.26-.188-.676-.015-.727.3l-.254 1.558-.35.188-1.436-.655c-.292-.133-.667.117-.654.437l.055 1.58-.304.25-1.54-.363c-.313-.073-.63.244-.557.557l.363 1.54-.25.303-1.58-.055c-.32-.01-.57.362-.437.655l.655 1.437-.188.35-1.558.253c-.316.05-.488.467-.3.727l.92 1.28-.116.38-1.477.552c-.3.112-.388.553-.153.772l1.156 1.078-.038.392-1.345.832c-.272.168-.272.62 0 .787l1.345.832.038.392L.43 18.697c-.234.22-.147.66.153.772l1.477.552.116.38-.92 1.28c-.187.26-.015.676.3.727l1.557.253.188.35-.655 1.436c-.133.292.118.667.437.655l1.58-.055.25.304-.363 1.54c-.073.312.244.63.557.556l1.54-.363.304.25-.055 1.58c-.012.32.362.57.654.437l1.436-.655.35.188.254 1.557c.05.317.467.488.727.302l1.28-.922.38.116.552 1.477c.112.3.553.388.772.153l1.078-1.156.392.04.832 1.345c.168.27.618.272.787 0l.832-1.345.392-.04 1.078 1.156c.22.235.66.147.772-.153l.552-1.477.38-.116 1.28.922c.26.187.676.015.727-.302l.254-1.557.35-.188 1.436.655c.292.133.666-.116.654-.437l-.055-1.58.303-.25 1.54.363c.313.073.63-.244.557-.556l-.363-1.54.25-.304 1.58.055c.32.013.57-.363.437-.655l-.655-1.436.187-.35 1.558-.253c.317-.05.49-.466.3-.727l-.92-1.28.116-.38 1.477-.552c.3-.113.388-.553.153-.772l-1.156-1.078.038-.392 1.345-.832c.272-.168.273-.618 0-.787z"/></svg>