<svg xmlns="http://www.w3.org/2000/svg" xmlns:xlink="http://www.w3.org/1999/xlink" viewBox="0 0 32 32"><defs><radialGradient id="a" cx="16" cy="16" r="14" gradientTransform="translate(-2.656 15.686) rotate(-30) scale(1 0.6)" gradientUnits="userSpaceOnUse"><stop offset="0" stop-color="#7d7d7d"/><stop offset="0.267" stop-color="#7e7c7a"/><stop offset="0.45" stop-color="#817871"/><stop offset="0.608" stop-color="#867162"/><stop offset="0.753" stop-color="#8d684c"/><stop offset="0.886" stop-color="#965c30"/><stop offset="1" stop-color="#a04f12"/></radialGradient></defs><title>file_type_rust</title><path d="M15.124,5.3a.832.832,0,1,1,.832.832.832.832,0,0,1-.832-.832M5.2,12.834a.832.832,0,1,1,.832.832.832.832,0,0,1-.832-.832m19.856.039a.832.832,0,1,1,.832.832.832.832,0,0,1-.832-.832M7.605,14.013a.76.76,0,0,0,.386-1l-.369-.835H9.074v6.545H6.144a10.246,10.246,0,0,1-.332-3.911Zm6.074.161V12.245h3.458c.179,0,1.261.206,1.261,1.016,0,.672-.83.913-1.513.913ZM8.958,24.561a.832.832,0,1,1,.832.832.832.832,0,0,1-.832-.832m12.331.039a.832.832,0,1,1,.832.832.832.832,0,0,1-.832-.832m.257-1.887a.759.759,0,0,0-.9.584l-.418,1.949a10.246,10.246,0,0,1-8.545-.041l-.417-1.949a.758.758,0,0,0-.9-.583l-1.721.37a10.246,10.246,0,0,1-.89-1.049h8.374c.095,0,.158-.017.158-.1V18.928c0-.086-.063-.1-.158-.1H13.679V16.947h2.649a1.665,1.665,0,0,1,1.629,1.412c.105.413.336,1.757.494,2.187.157.483.8,1.447,1.482,1.447h4.323a10.246,10.246,0,0,1-.949,1.1Zm4.65-7.821a10.246,10.246,0,0,1,.022,1.779H25.167c-.105,0-.148.069-.148.172v.483c0,1.136-.641,1.384-1.2,1.447-.535.06-1.128-.224-1.2-.551a3.616,3.616,0,0,0-1.671-2.808c1.03-.654,2.1-1.619,2.1-2.911a3.293,3.293,0,0,0-1.608-2.7,4.562,4.562,0,0,0-2.2-.724H8.367A10.246,10.246,0,0,1,14.1,5.84l1.282,1.344a.758.758,0,0,0,1.073.025l1.434-1.372a10.246,10.246,0,0,1,7.015,5l-.982,2.217a.761.761,0,0,0,.386,1Zm2.448.036-.033-.343,1.011-.943a.421.421,0,0,0-.134-.676L28.2,12.483l-.1-.334.806-1.12a.421.421,0,0,0-.263-.636l-1.363-.222-.164-.306.573-1.257a.419.419,0,0,0-.382-.573l-1.383.048L25.7,7.819l.318-1.347a.421.421,0,0,0-.487-.487L24.183,6.3l-.266-.219L23.966,4.7a.421.421,0,0,0-.572-.383l-1.257.573-.306-.164-.222-1.363a.421.421,0,0,0-.636-.263l-1.121.806-.333-.1-.483-1.293a.421.421,0,0,0-.675-.135l-.943,1.012-.343-.033-.728-1.177a.421.421,0,0,0-.688,0l-.728,1.177-.343.033-.943-1.012a.421.421,0,0,0-.675.135L12.483,3.8l-.333.1L11.03,3.1a.421.421,0,0,0-.636.263l-.222,1.363-.306.164L8.608,4.317a.42.42,0,0,0-.572.383l.048,1.383L7.818,6.3,6.471,5.984a.421.421,0,0,0-.487.487L6.3,7.819l-.218.265L4.7,8.036a.422.422,0,0,0-.383.573L4.89,9.866l-.164.306-1.363.222a.421.421,0,0,0-.263.636l.806,1.12-.1.334-1.293.483a.421.421,0,0,0-.134.676l1.011.943-.033.343-1.177.728a.421.421,0,0,0,0,.688l1.177.728.033.343-1.011.943a.421.421,0,0,0,.134.675l1.293.483.1.334L3.1,20.972a.421.421,0,0,0,.264.636l1.363.222.164.307-.573,1.257a.421.421,0,0,0,.383.573l1.383-.048.219.266-.317,1.348a.42.42,0,0,0,.487.486L7.818,25.7l.266.218L8.035,27.3a.42.42,0,0,0,.572.382l1.257-.573.306.164.222,1.362a.421.421,0,0,0,.636.264l1.12-.807.334.1.483,1.292a.421.421,0,0,0,.675.134l.943-1.011.343.034.728,1.177a.422.422,0,0,0,.688,0l.728-1.177.343-.034.943,1.011a.421.421,0,0,0,.675-.134l.483-1.292.334-.1,1.12.807a.421.421,0,0,0,.636-.264l.222-1.362.306-.164,1.257.573a.42.42,0,0,0,.572-.382l-.048-1.384.265-.218,1.347.317a.42.42,0,0,0,.487-.486L25.7,24.183l.218-.266,1.383.048a.421.421,0,0,0,.382-.573l-.573-1.257.164-.307,1.363-.222a.42.42,0,0,0,.263-.636l-.806-1.12.1-.334,1.293-.483a.42.42,0,0,0,.134-.675l-1.011-.943.033-.343,1.177-.728a.421.421,0,0,0,0-.688Z" style="fill:url(#a)"/></svg>