<svg xmlns="http://www.w3.org/2000/svg" viewBox="0 0 32 32"><title>file_type_cpp</title><path d="M14.742,24.047a10.242,10.242,0,0,1-4.673.919A7.628,7.628,0,0,1,4.155,22.62,8.876,8.876,0,0,1,2,16.369,9.476,9.476,0,0,1,4.422,9.621a8.216,8.216,0,0,1,6.285-2.588,11.151,11.151,0,0,1,4.035.641v3.761A6.839,6.839,0,0,0,11,10.395,4.813,4.813,0,0,0,7.288,11.93a5.9,5.9,0,0,0-1.413,4.159A5.8,5.8,0,0,0,7.209,20.1a4.57,4.57,0,0,0,3.59,1.493,7.319,7.319,0,0,0,3.943-1.113Z" style="fill:#984c93"/><polygon points="17.112 14.829 17.112 12.485 19.456 12.485 19.456 14.829 21.8 14.829 21.8 17.172 19.456 17.172 19.456 19.515 17.112 19.515 17.112 17.172 14.77 17.172 14.77 14.828 17.112 14.829" style="fill:#984c93"/><polygon points="25.313 14.829 25.313 12.485 27.657 12.485 27.657 14.829 30 14.829 30 17.172 27.657 17.172 27.657 19.515 25.313 19.515 25.313 17.172 22.971 17.172 22.971 14.828 25.313 14.829" style="fill:#984c93"/></svg>