<svg version="1.0" id="Ebene_1" xmlns="http://www.w3.org/2000/svg" xmlns:xlink="http://www.w3.org/1999/xlink" x="0px" y="0px"
	 width="947px" height="947px" viewBox="0 0 947 947" enable-background="new 0 0 947 947" xml:space="preserve">
<g>
	<path fill="#000080" d="M835.5,473.6c0-199.8-162.2-362-362-362s-362,162.2-362,362c0,199.8,162.2,362,362,362
		S835.5,673.4,835.5,473.6"/>
	<path fill="#FFFFFF" d="M729.5,323.6c0-58.5-47.5-106-106-106s-106,47.5-106,106c0,58.5,47.5,106,106,106S729.5,382.1,729.5,323.6"
		/>
	<path fill="#000080" d="M941.5,111.5c0-58.5-47.5-106-106-106s-106,47.5-106,106c0,58.5,47.5,106,106,106S941.5,170.1,941.5,111.5"
		/>
	<g>
		<path fill="#FFFFFF" d="M258.1,627.8h117.3v26.7H227.8V417h30.3V627.8z"/>
		<path fill="#FFFFFF" d="M515.5,654.5v-23.8c-16,22.5-31.9,31.3-57,31.3c-33.2,0-54.4-18.2-54.4-46.6V483.8h27v120.9
			c0,20.5,13.7,33.6,35.2,33.6c28.3,0,46.6-22.8,46.6-57.7v-96.8h27v170.7H515.5z"/>
		<path fill="#FFFFFF" d="M738.4,659.1c-8.8,2.3-13,2.9-18.6,2.9c-17.6,0-26.1-7.8-28-25.1c-19.2,17.6-36.5,25.1-58,25.1
			c-34.5,0-56-19.5-56-50.5c0-22.2,10.1-37.5,30-45.6c10.4-4.2,16.3-5.5,54.7-10.4c21.5-2.6,28.3-7.5,28.3-18.9v-7.2
			c0-16.3-13.7-25.4-38.1-25.4c-25.4,0-37.8,9.4-40.1,30.3h-27.4c0.7-16.9,3.9-26.7,11.7-35.5c11.4-12.7,31.9-19.9,56.7-19.9
			c42,0,64.2,16.3,64.2,46.6v100.4c0,8.5,5.2,13.4,14.7,13.4c1.6,0,2.9,0,5.9-0.7V659.1z M690.8,570.1c-9.1,4.2-15,5.5-43.7,9.4
			c-29,4.2-41.1,13.4-41.1,31.3c0,17.3,12.4,27.4,33.6,27.4c16,0,29.3-5.2,40.4-15.3c8.1-7.5,10.8-13,10.8-22.2V570.1z"/>
	</g>
	<path fill="none" stroke="#808080" stroke-width="10.8612" stroke-miterlimit="10" stroke-dasharray="40.8475" d="M890.6,261
		c33.5,65.8,51,138.6,51,212.5c0,258.4-209.7,468.1-468.1,468.1S5.4,731.9,5.4,473.5C5.4,215.1,215.1,5.4,473.5,5.4
		c83.1,0,164.6,22.1,236.2,63.9"/>
</g>
</svg>

