<svg xmlns="http://www.w3.org/2000/svg" width="16" height="16" version="1">
 <rect style="fill:#e4e4e4" width="16" height="14" x="0" y="1" rx="1.2" ry="1.2"/>
 <path style="fill:#363636" d="M 8,5.8777778 A 4,4.2666667 0 0 0 4,10.144444 4,4.2666667 0 0 0 4.0143234,10.5 H 4.683594 A 3.3333333,3.5555556 0 0 1 4.666667,10.144444 3.3333333,3.5555556 0 0 1 7.99349,6.5888889 3.3333333,3.5555556 0 0 1 8,6.5888889 3.3333333,3.5555556 0 0 1 11.333333,10.144444 3.3333333,3.5555556 0 0 1 11.316409,10.5 H 11.98568 A 4,4.2666667 0 0 0 12,10.144444 4,4.2666667 0 0 0 8,5.8777778 Z"/>
 <rect style="fill:#ff4b4b" width="8.8" height=".7" x="3.6" y="6"/>
 <rect style="fill:#3974e1" width="2" height="2" x="3" y="10" rx=".333" ry=".333"/>
 <rect style="fill:#3974e1" width="2" height="2" x="10" y="-13" rx=".333" ry=".333" transform="rotate(90)"/>
 <circle style="fill:#ff4b4b" cx="12.25" cy="6.25" r=".75"/>
 <rect style="fill:#3974e1" width="2" height="2" x="7" y="5" rx=".333" ry=".333"/>
 <circle style="fill:#ff4b4b" cx="3.75" cy="6.25" r=".75"/>
</svg>
