<svg xmlns="http://www.w3.org/2000/svg" width="512" height="512" viewBox="0 0 512 512" fill="none">
<title>JavaScript logo</title>
<rect width="512" height="512" rx="50" fill="#F7DF1E"/>
<path d="M343.934 400.001C354.247 416.841 367.665 429.218 391.395 429.218C411.331 429.218 424.066 419.254 424.066 405.487C424.066 388.989 410.981 383.146 389.039 373.548L377.011 368.388C342.292 353.596 319.228 335.067 319.228 295.895C319.228 259.811 346.721 232.342 389.689 232.342C420.279 232.342 442.27 242.988 458.118 270.864L420.653 294.92C412.404 280.128 403.505 274.301 389.689 274.301C375.597 274.301 366.665 283.241 366.665 294.92C366.665 309.353 375.605 315.196 396.247 324.136L408.275 329.289C449.154 346.818 472.235 364.69 472.235 404.87C472.235 448.186 438.207 471.917 392.509 471.917C347.827 471.917 318.96 450.624 304.835 422.716L343.934 400.001ZM173.974 404.171C181.532 417.58 188.408 428.917 204.938 428.917C220.745 428.917 230.717 422.733 230.717 398.685V235.089H278.829V399.335C278.829 449.153 249.62 471.828 206.986 471.828C168.464 471.828 146.156 451.892 134.81 427.881L173.974 404.171Z" fill="black"/>
</svg>