<svg xmlns="http://www.w3.org/2000/svg" viewBox="0 0 32 32"><title>file_type_json</title><path d="M4.014,14.976a2.51,2.51,0,0,0,1.567-.518A2.377,2.377,0,0,0,6.386,13.1,15.261,15.261,0,0,0,6.6,10.156q.012-2.085.075-2.747a5.236,5.236,0,0,1,.418-1.686,3.025,3.025,0,0,1,.755-1.018A3.046,3.046,0,0,1,9,4.125,6.762,6.762,0,0,1,10.544,4h.7V5.96h-.387a2.338,2.338,0,0,0-1.723.468A3.4,3.4,0,0,0,8.709,8.52a36.054,36.054,0,0,1-.137,4.133,4.734,4.734,0,0,1-.768,2.06A4.567,4.567,0,0,1,6.1,16a3.809,3.809,0,0,1,1.992,1.754,8.861,8.861,0,0,1,.618,3.865q0,2.435.05,2.9A1.755,1.755,0,0,0,9.264,25.7a2.639,2.639,0,0,0,1.592.337h.387V28h-.7a5.655,5.655,0,0,1-1.773-.2,2.97,2.97,0,0,1-1.324-.93,3.353,3.353,0,0,1-.681-1.63A24.175,24.175,0,0,1,6.6,22.006,16.469,16.469,0,0,0,6.386,18.9a2.408,2.408,0,0,0-.805-1.361,2.489,2.489,0,0,0-1.567-.524Z" style="fill:#f5de19"/><path d="M27.986,17.011a2.489,2.489,0,0,0-1.567.524,2.408,2.408,0,0,0-.805,1.361,16.469,16.469,0,0,0-.212,3.109,24.175,24.175,0,0,1-.169,3.234,3.353,3.353,0,0,1-.681,1.63,2.97,2.97,0,0,1-1.324.93,5.655,5.655,0,0,1-1.773.2h-.7V26.04h.387a2.639,2.639,0,0,0,1.592-.337,1.755,1.755,0,0,0,.506-1.186q.05-.462.05-2.9a8.861,8.861,0,0,1,.618-3.865A3.809,3.809,0,0,1,25.9,16a4.567,4.567,0,0,1-1.7-1.286,4.734,4.734,0,0,1-.768-2.06,36.054,36.054,0,0,1-.137-4.133,3.4,3.4,0,0,0-.425-2.092,2.338,2.338,0,0,0-1.723-.468h-.387V4h.7A6.762,6.762,0,0,1,23,4.125a3.046,3.046,0,0,1,1.149.581,3.025,3.025,0,0,1,.755,1.018,5.236,5.236,0,0,1,.418,1.686q.062.662.075,2.747a15.261,15.261,0,0,0,.212,2.947,2.377,2.377,0,0,0,.805,1.355,2.51,2.51,0,0,0,1.567.518Z" style="fill:#f5de19"/></svg>