<svg width="32px" height="32px" viewBox="0 0 32 32" xmlns="http://www.w3.org/2000/svg"><title>file_type_makefile</title><path d="M7.313,18.654a.548.548,0,0,1-.6.233.917.917,0,0,0-.869.08c-.306.218-.637.053-.579-.345a1.229,1.229,0,0,1,.583-.971c.833-.479.254-.812.711-1.293s.357-.629.341-1.283a4.648,4.648,0,0,1-3.4-1.9,6.012,6.012,0,0,1-1.46-3.764,6.365,6.365,0,0,1,.649-3.8A5.315,5.315,0,0,1,5.254,3.089a7.022,7.022,0,0,1,3.489-.77,4.96,4.96,0,0,1,2.443.452,5.148,5.148,0,0,0,1.546.8,1.217,1.217,0,0,0,.782-.226c.047,1.189-1.023,1.292-1.98,1.317s-1.546-.371-2.427-.224A4.193,4.193,0,0,0,6.077,6.212,3.783,3.783,0,0,0,5.408,8.9a1.952,1.952,0,0,0,1.441,1.8c.5.008.61-.136,1.047-.421s2.665-3.043,3.426-3.663a3.522,3.522,0,0,1,2.322-.821,3.24,3.24,0,0,1,1.671.286A12.275,12.275,0,0,1,16.9,7.139a8.833,8.833,0,0,0,.684-.576,2.865,2.865,0,0,1,2.393-.718,3.644,3.644,0,0,1,1.819.8A14.312,14.312,0,0,1,23.809,9.07a3.59,3.59,0,0,0,1.621,1.489c.771.237,1.352-.762,1.437-1.316a5.814,5.814,0,0,0,.112-.935,4.413,4.413,0,0,0-.135-1.125,4,4,0,0,0-.455-1.016,3.606,3.606,0,0,0-1.3-1.25A4.129,4.129,0,0,0,23.7,4.5a13.676,13.676,0,0,0-1.4.2c-.584.04-1.628.171-2.086-.28a1.18,1.18,0,0,1-.378-.853.892.892,0,0,0,.469.19c.366.031.708-.268,1-.441a7.34,7.34,0,0,1,.908-.526,5.856,5.856,0,0,1,2.7-.232,6.308,6.308,0,0,1,2.2.725,6,6,0,0,1,1.634,1.48A4.983,4.983,0,0,1,29.781,6.9a8.981,8.981,0,0,1,.017,3.847,7.577,7.577,0,0,1-1.714,2.819,4.388,4.388,0,0,1-2.317,1.112,4.911,4.911,0,0,0,.086.488c.064.206.188.436.441.363a.236.236,0,0,1,.289.063c.133.116.064.567-.311.769a1.449,1.449,0,0,1-.695.131,6.612,6.612,0,0,1-1.11-.051c-.33-.058-.528-.32-.894-.361a3.572,3.572,0,0,1-1.452-.764,3.048,3.048,0,0,0-.362-.185c.059.18.138.368.177.541s.023.334.043.472.059.247.082.359c.09.081.119.2.272.243a1.706,1.706,0,0,0,.546-.043c.156-.021.26-.106.383-.083a.85.85,0,0,1,.34.193c.1.082.191.094.274.3a3.333,3.333,0,0,1,.171.9,1.93,1.93,0,0,1-.1.755,1.261,1.261,0,0,1-.381.541,5.937,5.937,0,0,1-.956.769,1.652,1.652,0,0,0,.2.3c.1.109.324.229.421.344a.473.473,0,0,1,.148.324.686.686,0,0,1-.109.433,1.9,1.9,0,0,1-.937.573,2.477,2.477,0,0,1,.023,1.06c-.037.159-.119.519-.315.612a3.823,3.823,0,0,1-.814.086c-.239.038-.373.074-.56.111a3.3,3.3,0,0,0-.34.492.4.4,0,0,0,.008.35c.049.15.214.368.261.544a1.091,1.091,0,0,1,.012.541.943.943,0,0,1-.269.46c-.15.157-.446.28-.593.406s-.294.142-.254.352a1.551,1.551,0,0,0,.781.867.925.925,0,0,0,.65-.048c-.015.246-.228.412-.367.576a2.2,2.2,0,0,0,1-.588,2.488,2.488,0,0,1-.752.955,2.872,2.872,0,0,1-.6.4,2.652,2.652,0,0,0,.99,0,1.97,1.97,0,0,1-.748.242,2.2,2.2,0,0,1-.85-.064,5.7,5.7,0,0,1-.951-.541.78.78,0,0,0,.217.442,2.859,2.859,0,0,0,.639.334,9.407,9.407,0,0,1-.963-.116,2.233,2.233,0,0,1-.555-.189,3.647,3.647,0,0,1-.449-.309,1.291,1.291,0,0,0,.215.411,1.963,1.963,0,0,0,.48.232,2.1,2.1,0,0,1-.5-.011,1.408,1.408,0,0,1-.517-.245,3.7,3.7,0,0,1-.52-.463,2.155,2.155,0,0,1-.4-.538c-.058-.154.035-.262.052-.393a1.233,1.233,0,0,0-.318.21.4.4,0,0,0-.118.37,2.46,2.46,0,0,0,.315.589c-.344-.281-.536-.389-.618-.729a1.143,1.143,0,0,1,.272-.846c.075-.119.187-.23.257-.345a4.668,4.668,0,0,1-.466-.456c-.133-.173-.189-.408-.325-.573a3.412,3.412,0,0,0-.478-.407,6.246,6.246,0,0,1,.42.9.6.6,0,0,1-.139.5c-.083.126-.216.154-.343.231s-.323.017-.4.131a.392.392,0,0,0-.023.4l.3.466a1.421,1.421,0,0,1-.381-.328c-.084-.114-.214-.218-.232-.371a.541.541,0,0,1,.073-.422c.1-.137.371-.182.493-.287s.19-.173.183-.309-.14-.232-.253-.318a8.278,8.278,0,0,1-1.088-.815,1.08,1.08,0,0,1-.28-.443.459.459,0,0,1,.085-.368c.083-.151.367-.352.4-.515s-.109-.2-.238-.256-.376.029-.5-.071.035-.311-.1-.427-.445-.051-.6-.176a.837.837,0,0,1-.281-.459.974.974,0,0,1-.024-.509c.038-.131.15-.154.217-.222s.127-.124.036-.225-.385.006-.555-.124-.066-.44-.186-.572-.336-.079-.449-.121-.159.106-.228-.128-.072-.93-.166-1.189-.278-.018-.363-.276a7.085,7.085,0,0,1-.043-1.06l-.175-1.061c-.609.409-2.53.935-2.7,1.233" style="fill:#fff"/><path d="M16.623,8.258A3.733,3.733,0,0,0,16.7,9.2a.909.909,0,0,0,.382.66c.462.343.758.286,1.114.485a1.017,1.017,0,0,1,.446.421.363.363,0,0,1-.17.422.361.361,0,0,0,.371-.48c-.052-.128-.3-.185-.373-.314a.488.488,0,0,1-.04-.393c.064-.236.531-.451.7-.637a.772.772,0,0,0,.208-.9,2.831,2.831,0,0,0-1.45-1.141,3.209,3.209,0,0,0-.5-.15,1.65,1.65,0,0,1,.875.807c.144.374.019.515.024.84,0,.151.2.226.289.322s.07.145.009.259a.3.3,0,0,0-.13-.236c-.13-.093-.271-.073-.341-.263-.106-.289.1-.563-.132-.888a1.029,1.029,0,0,0-.727-.522,1.267,1.267,0,0,0-.423.066L16.613,7.3l0,0a4.594,4.594,0,0,0-1.34-.995,3.033,3.033,0,0,0-1.607-.3,3.068,3.068,0,0,0-2.2.771c-.808.7-2.892,3.367-3.4,3.7a1.7,1.7,0,0,1-1.248.453A2.124,2.124,0,0,1,5.161,8.927,4.041,4.041,0,0,1,5.883,6.07a4.173,4.173,0,0,1,3.224-1.9,12.022,12.022,0,0,1,2.441.23c.771,0,1.534-.132,1.759-.745a1.044,1.044,0,0,1-.672.118A6.739,6.739,0,0,1,11,2.952,5.237,5.237,0,0,0,8.71,2.575a6.319,6.319,0,0,0-3.215.669A5.769,5.769,0,0,0,2.913,5.719a5.866,5.866,0,0,0-.654,3.649,6.068,6.068,0,0,0,1.423,3.613,4.457,4.457,0,0,0,3.295,1.785l.329-1.45-.587.842.015-.937-.531.659-.233-.894-.43.716-.214-1-.623.5.2-.823-.825.092.379-.572-.752.009.438-.764-.667-.106L4,10.35l-.817-.242.676-.648L3.2,8.916l.522-.406L3.23,7.86l.521-.607-.194-.8L4,6.067l.132-.916.5-.249.427-.715L5.844,4.1l.39-.643.793.04.749-.407.778.181.883-.266.654.153.853.125.824.659L10.5,3.5l-.636.305-.526-.321-.362.246-.64.064-.574-.037-.419.511L6.5,4.281l-.3.688-.759.266-.071.791-.544.426L5,7.2l-.47.773.361.676-.355.619.472.308-.107.995.656.166.148.738.715-.075.444.506.549-.536A6.151,6.151,0,0,0,9.606,9.745a10.282,10.282,0,0,1,2.58-2.506,3.451,3.451,0,0,1,2.493-.477c.895.154,1.194.691,1.853,1.257a.626.626,0,0,1,.2-.253,4.416,4.416,0,0,0-.108.492Zm4.665,5.934a.71.71,0,0,1-.2.143,2.376,2.376,0,0,1-.344.083c.173.27.355.543.521.826s.31.594.469.892a4.909,4.909,0,0,0-.022-.511,5.014,5.014,0,0,0-.168-.537c-.071-.239-.159-.564-.26-.9Zm-.06-1.551a.508.508,0,0,1,.168.092.646.646,0,0,1,.255.269,1.025,1.025,0,0,1,.048.466c-.056-.016-.132-.005-.191-.055s-.092-.162-.167-.21a.439.439,0,0,0-.219-.048.694.694,0,0,1,.043.35.431.431,0,0,1-.409.387,1.336,1.336,0,0,1-.342-.036c.04.089.108.167.147.256A1.842,1.842,0,0,0,21,14.039a3.264,3.264,0,0,1,.345-.2,2.175,2.175,0,0,1,.395-.067c-.113.1-.188.2-.3.295l.25.728c.177.111.344.169.566.306a7.337,7.337,0,0,0,.781.515,2.887,2.887,0,0,0,.767.263c.3.057.545.3.844.343a6.43,6.43,0,0,0,1.087.025c.261-.025.6-.16.631-.447a.6.6,0,0,1-.723-.407c-.075-.183-.038-.52-.153-.737s-.274-.286-.466-.552a8.352,8.352,0,0,1-.679-1.045c-.175-.357-.217-.762-.365-1.082a5.285,5.285,0,0,0-.546-.826,2.918,2.918,0,0,0-1.308-1.18,6.4,6.4,0,0,0-.963-.249c-.131.059-.31.124-.342.276a.622.622,0,0,0,.14.493,2.1,2.1,0,0,1,.568.7,2.753,2.753,0,0,1,.03,1.029,1.146,1.146,0,0,1-.328.42Zm-1.451.173a2.483,2.483,0,0,1,.854-.242c.126-.008.321.012.448.017a1.7,1.7,0,0,0,.3-.466,2.519,2.519,0,0,0-.043-.826c-.172-.423-.34-.441-.577-.683a1.347,1.347,0,0,1-.231-.743c-.019-.11-.073-.249-.1-.363a4.64,4.64,0,0,0-1-.052,1.088,1.088,0,0,0,.39-.567,1.116,1.116,0,0,0-.132-.78,3.032,3.032,0,0,0-.576-.6c-.208-.182-.506-.332-.7-.482a5.781,5.781,0,0,1,.768-.275A2.5,2.5,0,0,1,21.02,7.2a4.6,4.6,0,0,1,1.053.833c.384.4.859,1.137,1.23,1.574A7.877,7.877,0,0,0,24.3,10.65a4.973,4.973,0,0,0,.925.5l.481.51.389-.481.625.071.129-.7.574-.157-.093-.947.413-.293-.31-.589.315-.644-.411-.736.159-.708-.476-.405-.062-.753-.664-.253-.266-.655L25.278,4.4l-.366-.486-.5.035-.56-.061-.316-.234-.46.3-.557-.29-1.106.42.721-.627.747-.119L23.45,3.2l.773.254.68-.172.656.388.694-.038.341.612.691.079.374.68.435.237.115.871.387.367-.17.762.456.577-.428.619.457.387-.585.518.592.616-.715.23.466.661-.584.1.383.727-.658-.009.331.545-.722-.087.173.783-.546-.48-.187.949-.377-.682-.2.85-.465-.627.012.891-.514-.8a3.638,3.638,0,0,0,.385,1.382,3.518,3.518,0,0,0,2.24-1.041,7.168,7.168,0,0,0,1.627-2.739,9.306,9.306,0,0,0,.011-3.618,5.45,5.45,0,0,0-1.045-2.109A7.963,7.963,0,0,0,26.9,3.405a6.2,6.2,0,0,0-3.2-.694,3.79,3.79,0,0,0-1.338.25c-.617.224-1.11.714-1.737.955a.6.6,0,0,1-.53,0,.989.989,0,0,0,.723.572,5.464,5.464,0,0,0,1.431-.013A9.013,9.013,0,0,1,23.7,4.285a3.1,3.1,0,0,1,1.484.428,3.658,3.658,0,0,1,1.4,1.318,4,4,0,0,1,.448,1.079,5.063,5.063,0,0,1,.151,1.174,3.6,3.6,0,0,1-.112,1.035c-.212.781-.68,1.576-1.641,1.454-.588-.075-1.475-1.18-1.772-1.585a15.7,15.7,0,0,0-1.969-2.4,3.034,3.034,0,0,0-1.705-.757A2.579,2.579,0,0,0,17.6,6.86a4.609,4.609,0,0,1,.532.17,3.981,3.981,0,0,1,1.094.718,1.19,1.19,0,0,1,.5.968c.008.3-.239.541-.465.758-.139.133-.322.254-.434.357-.149.137-.333.286-.147.5a1.883,1.883,0,0,0,.3.22c.163.121.089.572-.127.691a.712.712,0,0,1-.832-.069c.287-.043.469-.081.461-.315,0-.136-.177-.249-.347-.326a4.931,4.931,0,0,1-1.125-.452c-.411-.3-.42-.458-.531-.922a2.623,2.623,0,0,0-.646.113c-.265.087-.558.3-.8.348a1.718,1.718,0,0,1-1.058.006,4.244,4.244,0,0,0-2.1.349,5.917,5.917,0,0,0-.975.121,6.413,6.413,0,0,0-1.7.995A9.083,9.083,0,0,0,7.22,15.149c-.051.57.112.955-.248,1.233s-.349.992-.471,1.193-.263.111-.525.392-.4.234-.389.766a1.839,1.839,0,0,1,.845-.332c.256-.009.259.328.916-.322.352-.348,1.027-.358,1.5-.512A4.732,4.732,0,0,0,11,16.152a5.613,5.613,0,0,0,1.415-3.381,3.984,3.984,0,0,1-.038,1.247,3.473,3.473,0,0,0,.151,2.442l.309.59a5.184,5.184,0,0,1-.652-.953l-.25-.674a5.057,5.057,0,0,1-1.463,1.662,2.916,2.916,0,0,0,.089,1.169c.128.373-.076.8.021,1.049s.321.106.394.355-.038.741.075.983.392.1.527.174a.774.774,0,0,1,.251.289c.073.1-.028.346.119.425s.376.012.529.088a.357.357,0,0,1,.139.422c-.036.163-.2.238-.272.4a.427.427,0,0,0,.023.434.891.891,0,0,0,.466.314c.19.077.457.034.653.14a1.537,1.537,0,0,1,.476.473.636.636,0,0,1,.127.425,1.19,1.19,0,0,1-.157.505c-.087.157-.278.347.021.647s.287.17.458.364c-.019-.336-.157-.609-.056-.862s.406-.3.566-.411a2.625,2.625,0,0,0,.379-.4,4.487,4.487,0,0,1,0,.491c-.041.266-.119.5.277.544a1.293,1.293,0,0,0,.535-.166c-.1.176-.269.318-.3.528a.918.918,0,0,0,.151.651,2.127,2.127,0,0,0,.582.487,2.227,2.227,0,0,0,.425.2c.007.207-.034.427-.01.621a1.134,1.134,0,0,0,.2.529,1.73,1.73,0,0,0,.465.373c-.094-.218-.283-.424-.281-.653a.734.734,0,0,1,.294-.594c.223-.2.746-.38.992-.577a1.214,1.214,0,0,0,.414-.51,2.23,2.23,0,0,0,.08-.673,2.032,2.032,0,0,1,.119.569,2.006,2.006,0,0,1-.221.794,1.217,1.217,0,0,0,.6-.612c.065.039.032.145.056.349.109-.108.232-.191.341-.293a.949.949,0,0,0,.284-.334.765.765,0,0,0-.008-.459,3.091,3.091,0,0,0-.324-.538c-.1-.181.017-.358.01-.576a1.727,1.727,0,0,0-.6-.1c-.229.033-.491.29-.725.293s-.365-.216-.557-.277a3.409,3.409,0,0,0-.579-.08,5.348,5.348,0,0,1,1.84-.451,11.629,11.629,0,0,1,1.715-.155,4.393,4.393,0,0,0,.769.03c.179-.051.141-.174.194-.307a1.73,1.73,0,0,0-.006-1.079A8.378,8.378,0,0,0,20.46,22c-.511.039-1.117.282-1.644.3a3.165,3.165,0,0,1-1.53-.328,3.63,3.63,0,0,1-.986-1.125c-.215-.329-.486-.975-.651-1.27a1.614,1.614,0,0,0-.339-.5,1.512,1.512,0,0,0-.488-.2c.188.019.392-.04.563.058.256.147.543.756.7,1.021.169-.566.129-.788.618-1.107a2.153,2.153,0,0,0-.5,1.295c.327.537.782,1.393,1.378,1.63a3.907,3.907,0,0,0,.817.168,5.91,5.91,0,0,0,2.132-.315,5.587,5.587,0,0,1,1.678-.04c.215.012.72-.117.825-.333A.382.382,0,0,0,23,20.868c-.081-.126-.3-.186-.414-.3a2.667,2.667,0,0,1-.274-.368,7.515,7.515,0,0,1-1.238.138c.257-.106.5-.167.771-.271a4.6,4.6,0,0,0,.787-.419,2.522,2.522,0,0,0,.51-.391,3.13,3.13,0,0,0,.471-.539,1.406,1.406,0,0,0,.139-.681,2.03,2.03,0,0,0-.1-.805.634.634,0,0,0-.433-.311c-.15-.048-.252.073-.408.09s-.3.115-.527.008a1.967,1.967,0,0,1-.72-.642c-.228-.32-.39-.844-.623-1.247a21.2,21.2,0,0,0-1.376-1.986,4.043,4.043,0,0,1-.118-.593,2.861,2.861,0,0,1,.076-1.13.987.987,0,0,1,.512-.69.563.563,0,0,1,.371-.026.25.25,0,0,1,.167.294c-.045.15-.15.155-.221.231a.808.808,0,0,0-.213.384,1.825,1.825,0,0,1,.412.016.481.481,0,0,1,.339.326.611.611,0,0,0-.456-.22,2.057,2.057,0,0,0-.316.048,2.271,2.271,0,0,1-.118.383c-.056.1-.163.075-.2.191a1.12,1.12,0,0,0-.022.455Zm.546.2c-.208.013-.258-.014-.424.1l.271.422a.65.65,0,0,1,.153-.525Zm-7.072-1.86a.812.812,0,0,1,.036-.194c-.3-.081-.423.115-.6.479-.066.136,0,.217-.072.306s-.185.077-.3.163-.23.251-.338.34a3.758,3.758,0,0,1-.777.418,2.536,2.536,0,0,0,.625-.513c.058-.1.05-.287.14-.377s.123-.152.24-.174.07-.159.108-.266a1.151,1.151,0,0,1,.193-.293.848.848,0,0,1,.339-.329c.158-.059.405,0,.525-.029s.051-.121.138-.173.257-.029.373-.085a1.139,1.139,0,0,0,.429-.442A2.256,2.256,0,0,1,14.187,11a1.478,1.478,0,0,1-.749.89,2.38,2.38,0,0,1-.426.16c.073-.1.177-.143.219-.3a3.762,3.762,0,0,0,.02-.6Zm1.931,1.493c.157-.014.351.028.5.02a2.652,2.652,0,0,0,.377-.07c-.023-.221,0-.627-.205-.774a1.783,1.783,0,0,0-.817.008,7.63,7.63,0,0,0-1.017.385,3.168,3.168,0,0,1,.923-.514,2.428,2.428,0,0,1,.948-.09c.1.028.123.07.185.156a1.811,1.811,0,0,1,.268.9,2.524,2.524,0,0,1,.157.229,1.1,1.1,0,0,1,.081.338c-.056-.081-.022-.183-.177-.243a1.507,1.507,0,0,0-.6.018.508.508,0,0,1-.231.934.541.541,0,0,1-.641-.333.988.988,0,0,1-.021-.4.794.794,0,0,0-.688.259,1.3,1.3,0,0,0,.523.508,1.681,1.681,0,0,0,.5.186,2.516,2.516,0,0,0,.676.032.734.734,0,0,0,.444-.216,1.04,1.04,0,0,0,.212-.47,1.369,1.369,0,0,1-.083.431.786.786,0,0,1-.778.412,2.853,2.853,0,0,1-1.019-.2,1.542,1.542,0,0,1-.73-.624,1.8,1.8,0,0,1-.02-.557c.332-.22.413-.166.806-.231.164-.027.277-.088.433-.1Zm.9-2.187a1.48,1.48,0,0,0,.524.212c.147,0,.185-.1.272-.154a6.578,6.578,0,0,0,.523,1.333c.1.169.159.09.232.26s.107.514.176.73a5.907,5.907,0,0,0,.242.564,7.727,7.727,0,0,1-.583-.9c-.114-.241-.041-.262-.133-.492s-.279-.588-.418-.882a.829.829,0,0,1-.3.008c-.076-.023-.061-.1-.129-.156s-.184-.032-.28-.115a.592.592,0,0,1-.127-.405Zm-1.964,7.762c.138-.112.511-.023.789,0l-.6.154c-.019.068-.01.147-.056.2s-.132.079-.2.119c.007-.179-.072-.363.066-.475Zm2.574-3.737a2.621,2.621,0,0,0,.205-.6c-.027.252.024.529-.1.712s-.339.151-.518.2c.139-.106.3-.153.411-.312Zm-.252,2.8a1,1,0,0,1,.5-.9,2.14,2.14,0,0,1,.706-.253,2.751,2.751,0,0,1,1.186.155,7.055,7.055,0,0,1,.7.459c.239.141.409.236.637.395.35.243.554.512.8.673a1.763,1.763,0,0,0,.435.113.73.73,0,0,1-.407.033,1.823,1.823,0,0,1-.513-.306,3.515,3.515,0,0,0-.579-.42c-.145-.084-.383-.183-.542-.287s-.435-.331-.587-.407a1.892,1.892,0,0,0-.759-.146,1.606,1.606,0,0,0-.959.267.645.645,0,0,0-.264.66,2.992,2.992,0,0,1,.23-.3.721.721,0,0,1,.607-.131.531.531,0,0,1,.459.415,1.1,1.1,0,0,0-.238-.159.573.573,0,0,0-.51.05c-.21.112-.153.278-.183.463a1.765,1.765,0,0,1-.069.231.453.453,0,0,1-.211-.113,1.493,1.493,0,0,0,.008.259,3.194,3.194,0,0,0,.1.319,1.872,1.872,0,0,1-.39-.47,1.237,1.237,0,0,1-.148-.6Zm1.889.318a.98.98,0,0,1,.439.114,1.712,1.712,0,0,1,.314.223,1.858,1.858,0,0,1,.5.877,5.274,5.274,0,0,1,.077.745,4.767,4.767,0,0,0-.225-.687,1.682,1.682,0,0,0-.783-.8.42.42,0,0,0-.252-.032c.028.047.075.086.077.155a.27.27,0,0,1-.13.259.493.493,0,0,1-.541-.1.48.48,0,0,1-.12-.535c.091-.224.439-.224.644-.216Zm-10.406.644a.726.726,0,0,0-.6.4.548.548,0,0,1-.6.233.917.917,0,0,0-.869.08c-.306.218-.637.053-.579-.344a1.226,1.226,0,0,1,.583-.971c.832-.479.254-.812.71-1.293s.356-.629.342-1.283a4.65,4.65,0,0,1-3.4-1.9A6.013,6.013,0,0,1,2.036,9.4a6.362,6.362,0,0,1,.649-3.8A5.314,5.314,0,0,1,5.254,3.078a7.026,7.026,0,0,1,3.489-.769,4.958,4.958,0,0,1,2.443.452,5.153,5.153,0,0,0,1.545.8,1.218,1.218,0,0,0,.782-.226c.047,1.189-1.023,1.292-1.981,1.317s-1.546-.371-2.427-.223A4.192,4.192,0,0,0,6.078,6.2a3.78,3.78,0,0,0-.669,2.683,1.951,1.951,0,0,0,1.44,1.8c.5.008.61-.136,1.047-.421S10.561,7.221,11.322,6.6a3.518,3.518,0,0,1,2.321-.821,3.236,3.236,0,0,1,1.671.285A12.282,12.282,0,0,1,16.9,7.128a8.515,8.515,0,0,0,.684-.576,2.865,2.865,0,0,1,2.393-.718,3.644,3.644,0,0,1,1.819.8A14.284,14.284,0,0,1,23.81,9.059a3.594,3.594,0,0,0,1.621,1.489c.771.237,1.351-.762,1.437-1.316A5.786,5.786,0,0,0,26.98,8.3a4.39,4.39,0,0,0-.134-1.125,4.012,4.012,0,0,0-.455-1.016,3.6,3.6,0,0,0-1.3-1.25A4.131,4.131,0,0,0,23.7,4.485a13.632,13.632,0,0,0-1.4.2c-.584.04-1.627.171-2.085-.28a1.18,1.18,0,0,1-.378-.854.891.891,0,0,0,.469.189c.366.031.708-.268,1-.441a7.2,7.2,0,0,1,.907-.526,5.861,5.861,0,0,1,2.7-.233,6.315,6.315,0,0,1,2.2.725,6.005,6.005,0,0,1,1.634,1.48,4.992,4.992,0,0,1,1.037,2.15,8.988,8.988,0,0,1,.017,3.847,7.581,7.581,0,0,1-1.713,2.819,4.391,4.391,0,0,1-2.317,1.112c.034.177.04.342.085.487.065.206.188.436.442.364a.236.236,0,0,1,.289.062c.133.117.063.567-.312.769a1.444,1.444,0,0,1-.695.131,6.517,6.517,0,0,1-1.11-.051c-.33-.058-.528-.319-.894-.361a3.576,3.576,0,0,1-1.452-.764,3.069,3.069,0,0,0-.362-.185c.059.18.137.368.177.541s.022.334.043.473.059.246.081.359c.091.081.12.2.272.243a1.688,1.688,0,0,0,.546-.043c.156-.021.261-.105.383-.083a.853.853,0,0,1,.341.193c.1.082.19.094.274.3a3.364,3.364,0,0,1,.17.9,1.922,1.922,0,0,1-.1.755,1.254,1.254,0,0,1-.381.541,5.924,5.924,0,0,1-.957.769,1.691,1.691,0,0,0,.2.3c.1.108.324.229.421.343a.474.474,0,0,1,.148.324.689.689,0,0,1-.109.434,1.9,1.9,0,0,1-.937.573,2.484,2.484,0,0,1,.023,1.06c-.037.159-.119.519-.315.612a3.808,3.808,0,0,1-.814.086c-.239.038-.373.074-.56.111a3.312,3.312,0,0,0-.34.491.4.4,0,0,0,.008.35c.049.15.215.369.261.544a1.091,1.091,0,0,1,.012.541.952.952,0,0,1-.269.461c-.15.157-.446.279-.593.406s-.294.142-.254.352a1.548,1.548,0,0,0,.781.867.93.93,0,0,0,.65-.047c-.015.246-.228.412-.367.575a2.2,2.2,0,0,0,1-.587,2.486,2.486,0,0,1-.752.954,2.86,2.86,0,0,1-.6.4,2.634,2.634,0,0,0,.991,0,1.964,1.964,0,0,1-.748.242,2.189,2.189,0,0,1-.85-.063,5.72,5.72,0,0,1-.951-.541.782.782,0,0,0,.216.442,2.849,2.849,0,0,0,.639.334,9.6,9.6,0,0,1-.963-.116,2.274,2.274,0,0,1-.555-.189,3.8,3.8,0,0,1-.449-.309,1.3,1.3,0,0,0,.215.411,1.95,1.95,0,0,0,.481.233,2.1,2.1,0,0,1-.5-.011,1.409,1.409,0,0,1-.517-.245,3.708,3.708,0,0,1-.521-.464,2.146,2.146,0,0,1-.4-.538c-.058-.154.035-.262.052-.393a1.218,1.218,0,0,0-.319.209.4.4,0,0,0-.118.371,2.45,2.45,0,0,0,.315.589c-.344-.281-.536-.39-.618-.729a1.142,1.142,0,0,1,.272-.846c.075-.119.187-.23.256-.345a4.636,4.636,0,0,1-.466-.456c-.133-.174-.189-.408-.325-.574a3.436,3.436,0,0,0-.478-.406,6.173,6.173,0,0,1,.42.9.6.6,0,0,1-.139.5c-.083.126-.216.154-.342.231s-.324.016-.4.131a.393.393,0,0,0-.023.4l.3.466a1.418,1.418,0,0,1-.381-.328c-.085-.113-.214-.218-.232-.371a.541.541,0,0,1,.073-.423c.1-.136.371-.182.493-.287s.19-.173.183-.309-.139-.233-.253-.318a8.319,8.319,0,0,1-1.088-.815,1.091,1.091,0,0,1-.28-.443.461.461,0,0,1,.085-.368c.083-.151.367-.352.4-.515s-.109-.2-.238-.257-.375.029-.5-.071.035-.311-.1-.427-.445-.051-.6-.176a.84.84,0,0,1-.281-.46.968.968,0,0,1-.024-.509c.037-.131.149-.153.217-.221s.127-.124.036-.226-.386.006-.556-.124-.066-.44-.186-.571-.336-.08-.449-.122-.158.106-.228-.127-.072-.929-.165-1.189-.278-.017-.364-.276a7.171,7.171,0,0,1-.043-1.061l-.175-1.061a3.741,3.741,0,0,1-1.666.654,10.832,10.832,0,0,0,.338,4.321c.543,1.777,1.643,2.824,3.128,4.328a9.109,9.109,0,0,1-3.478-4.188,9.791,9.791,0,0,1-.414-4.277" style="fill:#030303"/></svg>