<svg xmlns="http://www.w3.org/2000/svg" viewBox="0 0 32 32"><title>file_type_c</title><path d="M10.676,15.973a10.052,10.052,0,0,0,1.175,5.151,5.446,5.446,0,0,0,6.306,2.408,4.284,4.284,0,0,0,3.09-3.6c.107-.6.109-.61.109-.61,1.737.251,4.537.658,6.274.906l-.11.44a11.256,11.256,0,0,1-2.7,5.39,9.439,9.439,0,0,1-5.366,2.688,14.61,14.61,0,0,1-8.277-.819A10.151,10.151,0,0,1,5.4,21.687a16.225,16.225,0,0,1,.019-11.45,10.538,10.538,0,0,1,8.963-7.054,13.353,13.353,0,0,1,6.666.555,9.571,9.571,0,0,1,6.167,6.9c.094.352.114.417.114.417-1.932.351-4.319.8-6.238,1.215-.362-1.915-1.265-3.428-3.2-3.9a5.263,5.263,0,0,0-6.616,3.57,10.49,10.49,0,0,0-.385,1.439A12.31,12.31,0,0,0,10.676,15.973Z" style="fill:#005f91"/></svg>