<svg width="16" height="16" viewBox="0 0 16 16" xmlns="http://www.w3.org/2000/svg" fill="currentColor"><path d="M4.49705 5.8497C4.95319 5.66062 5.34304 5.33899 5.61594 4.92769C5.89079 4.51639 6.03699 4.03296 6.03504 3.5398C6.04284 3.19672 5.97851 2.8556 5.84596 2.53981C5.7212 2.23767 5.53797 1.96087 5.30601 1.72891C5.07404 1.49695 4.79919 1.31371 4.49705 1.18896C4.18127 1.05836 3.84014 0.99403 3.49902 0.999877C3.0039 0.999877 2.52048 1.14607 2.11113 1.42092C1.69983 1.69382 1.3782 2.08368 1.18912 2.53981C1.00004 2.99789 0.951304 3.50081 1.04877 3.98618C1.14428 4.47155 1.38015 4.91794 1.72907 5.26881C2.07994 5.61189 2.52048 5.8458 2.99805 5.94911V11.0367C2.51853 11.1381 2.07799 11.374 1.72907 11.717C1.38015 12.0679 1.14428 12.5143 1.04877 12.9997C0.953253 13.485 1.00198 13.988 1.18912 14.446C1.3782 14.9022 1.69983 15.292 2.11113 15.5649C2.52243 15.8398 3.00585 15.986 3.49902 15.984C3.84209 15.9918 4.18322 15.9275 4.499 15.7949C4.80114 15.6702 5.07794 15.487 5.30796 15.255C5.53992 15.023 5.72315 14.7482 5.84791 14.446C5.98046 14.1303 6.04478 13.7891 6.03699 13.4461C6.03699 12.9529 5.89079 12.4695 5.61789 12.0582C5.34304 11.6469 4.95513 11.3272 4.499 11.1362C4.35086 11.0738 4.19686 11.027 4.03897 10.9958V5.9881C4.03897 5.9881 4.34891 5.91013 4.49705 5.8497ZM4.30797 12.2102C4.53994 12.3486 4.73097 12.5494 4.85962 12.7892C4.98827 13.0289 5.0487 13.2979 5.037 13.5689C5.02336 13.8398 4.93759 14.103 4.7875 14.3291C4.61986 14.5766 4.38399 14.7716 4.1072 14.8885C3.8343 14.9996 3.53606 15.0269 3.24756 14.9685C2.95517 14.9119 2.68812 14.7696 2.47759 14.5591C2.26707 14.3486 2.12477 14.0796 2.06824 13.7891C2.00977 13.5006 2.03706 13.2024 2.14816 12.9295C2.26512 12.6527 2.46005 12.4168 2.70761 12.2492C2.95322 12.0855 3.24171 11.9997 3.538 11.9997C3.80896 11.9958 4.07601 12.0699 4.30797 12.2102ZM3.538 4.99006C3.24366 4.99006 2.95517 4.90235 2.70761 4.74056C2.46005 4.57292 2.26512 4.33705 2.14816 4.06025C2.03706 3.78735 2.00977 3.48911 2.06824 3.20062C2.12477 2.90823 2.26707 2.64118 2.47759 2.43065C2.68812 2.22013 2.95712 2.07783 3.24756 2.0213C3.53606 1.96282 3.8343 1.99011 4.1072 2.10122C4.38399 2.21818 4.61986 2.41311 4.7875 2.66067C4.93759 2.88679 5.02336 3.14994 5.037 3.42089C5.05065 3.69184 4.98827 3.96084 4.85962 4.2006C4.73097 4.44037 4.53994 4.63919 4.30797 4.77954C4.07601 4.91599 3.80896 4.99006 3.538 4.99006Z"/><path fill-rule="evenodd" clip-rule="evenodd" d="M15.0543 13.5C15.0543 14.8807 13.935 16 12.5543 16C11.1736 16 10.0543 14.8807 10.0543 13.5C10.0543 12.1193 11.1736 11 12.5543 11C13.935 11 15.0543 12.1193 15.0543 13.5ZM12.5543 15C13.3827 15 14.0543 14.3284 14.0543 13.5C14.0543 12.6716 13.3827 12 12.5543 12C11.7258 12 11.0543 12.6716 11.0543 13.5C11.0543 14.3284 11.7258 15 12.5543 15Z"/><circle cx="12.5543" cy="7.75073" r="1"/><circle cx="12.5543" cy="3.50146" r="1"/></svg>