<svg width="16" height="16" viewBox="0 0 16 16" xmlns="http://www.w3.org/2000/svg" fill="currentColor"><path fill-rule="evenodd" clip-rule="evenodd" d="M7.389 12.99l-1.27-1.27.67-.7 2.13 2.13v.7l-2.13 2.13-.71-.71L7.349 14h-1.85a2.49 2.49 0 0 1-2.5-2.5V5.95a2.59 2.59 0 0 1-1.27-.68 2.52 2.52 0 0 1-.54-2.73A2.5 2.5 0 0 1 3.499 1a2.45 2.45 0 0 1 1 .19 2.48 2.48 0 0 1 1.35 1.35c.133.317.197.658.19 1a2.5 2.5 0 0 1-2 2.45v5.5a1.5 1.5 0 0 0 1.5 1.5h1.85zm-4.68-8.25a1.5 1.5 0 0 0 2.08-2.08 1.55 1.55 0 0 0-.68-.56 1.49 1.49 0 0 0-.86-.08 1.49 1.49 0 0 0-1.18 1.18 1.49 1.49 0 0 0 .08.86c.117.277.311.513.56.68zm10.33 6.3c.48.098.922.335 1.27.68a2.51 2.51 0 0 1 .31 3.159 2.5 2.5 0 1 1-3.47-3.468c.269-.182.571-.308.89-.37V5.49a1.5 1.5 0 0 0-1.5-1.5h-1.85l1.27 1.27-.71.71-2.13-2.13v-.7l2.13-2.13.71.71-1.27 1.27h1.85a2.49 2.49 0 0 1 2.5 2.5v5.55zm-.351 3.943a1.5 1.5 0 0 0 1.1-2.322 1.55 1.55 0 0 0-.68-.56 1.49 1.49 0 0 0-.859-.08 1.49 1.49 0 0 0-1.18 1.18 1.49 1.49 0 0 0 .08.86 1.5 1.5 0 0 0 1.539.922z"/></svg>