<svg width="16" height="16" viewBox="0 0 16 16" xmlns="http://www.w3.org/2000/svg" fill="currentColor"><path fill-rule="evenodd" clip-rule="evenodd" d="M5.61594 4.92769C5.34304 5.33899 4.95319 5.66062 4.49705 5.8497C4.34891 5.91013 4.03897 5.9881 4.03897 5.9881V10.9958C4.19686 11.027 4.35086 11.0738 4.499 11.1362C4.95513 11.3272 5.34304 11.6469 5.61789 12.0582C5.89079 12.4695 6.03699 12.9529 6.03699 13.4461C6.04478 13.7891 5.98046 14.1303 5.84791 14.446C5.72315 14.7482 5.53992 15.023 5.30796 15.255C5.07794 15.487 4.80114 15.6702 4.499 15.7949C4.18322 15.9275 3.84209 15.9918 3.49902 15.984C3.00585 15.986 2.52243 15.8398 2.11113 15.5649C1.69983 15.292 1.3782 14.9022 1.18912 14.446C1.00198 13.988 0.953253 13.485 1.04877 12.9997C1.14428 12.5143 1.38015 12.0679 1.72907 11.717C2.07799 11.374 2.51853 11.1381 2.99805 11.0367V5.94911C2.52048 5.8458 2.07994 5.61189 1.72907 5.26881C1.38015 4.91794 1.14428 4.47155 1.04877 3.98618C0.951304 3.50081 1.00004 2.99789 1.18912 2.53981C1.3782 2.08368 1.69983 1.69382 2.11113 1.42092C2.52048 1.14607 3.0039 0.999877 3.49902 0.999877C3.84014 0.99403 4.18127 1.05836 4.49705 1.18896C4.79919 1.31371 5.07404 1.49695 5.30601 1.72891C5.53797 1.96087 5.7212 2.23767 5.84596 2.53981C5.97851 2.8556 6.04284 3.19672 6.03504 3.5398C6.03699 4.03296 5.89079 4.51639 5.61594 4.92769ZM4.85962 12.7892C4.73097 12.5494 4.53994 12.3486 4.30797 12.2102C4.07601 12.0699 3.80896 11.9958 3.538 11.9997C3.24171 11.9997 2.95322 12.0855 2.70761 12.2492C2.46005 12.4168 2.26512 12.6527 2.14816 12.9295C2.03706 13.2024 2.00977 13.5006 2.06824 13.7891C2.12477 14.0796 2.26707 14.3486 2.47759 14.5591C2.68812 14.7696 2.95517 14.9119 3.24756 14.9685C3.53606 15.0269 3.8343 14.9996 4.1072 14.8885C4.38399 14.7716 4.61986 14.5766 4.7875 14.3291C4.93759 14.103 5.02336 13.8398 5.037 13.5689C5.0487 13.2979 4.98827 13.0289 4.85962 12.7892ZM2.70761 4.74056C2.95517 4.90235 3.24366 4.99006 3.538 4.99006C3.80896 4.99006 4.07601 4.91599 4.30797 4.77954C4.53994 4.63919 4.73097 4.44037 4.85962 4.2006C4.98827 3.96084 5.05065 3.69184 5.037 3.42089C5.02336 3.14994 4.93759 2.88679 4.7875 2.66067C4.61986 2.41311 4.38399 2.21818 4.1072 2.10122C3.8343 1.99011 3.53606 1.96282 3.24756 2.0213C2.95712 2.07783 2.68812 2.22013 2.47759 2.43065C2.26707 2.64118 2.12477 2.90823 2.06824 3.20062C2.00977 3.48911 2.03706 3.78735 2.14816 4.06025C2.26512 4.33705 2.46005 4.57292 2.70761 4.74056ZM13.0368 11.0368C13.5164 11.1342 13.9588 11.372 14.3058 11.7171C14.7717 12.1868 15.0348 12.8243 15.0309 13.4831C15.0329 13.9763 14.8867 14.4597 14.6119 14.871C14.339 15.2823 13.9491 15.6039 13.493 15.793C13.0368 15.984 12.532 16.0347 12.0466 15.9392C11.5612 15.8437 11.1148 15.6059 10.764 15.255C10.415 14.9041 10.1753 14.4578 10.0798 13.9724C9.98425 13.487 10.0349 12.9841 10.226 12.526C10.4189 12.0738 10.7386 11.6839 11.146 11.4071C11.4131 11.2239 11.7172 11.0991 12.0349 11.0368V7.4891H13.0368V11.0368ZM13.5943 14.5455C13.8399 14.3018 13.992 13.9802 14.0271 13.6352C14.0622 13.2921 13.9764 12.9451 13.7854 12.6566C13.6177 12.4091 13.3819 12.2141 13.1051 12.0972C12.8322 11.9861 12.5339 11.9588 12.2454 12.0173C11.955 12.0738 11.686 12.2161 11.4755 12.4266C11.2649 12.6371 11.1226 12.9042 11.0661 13.1966C11.0076 13.4851 11.0349 13.7833 11.146 14.0562C11.263 14.333 11.4579 14.5689 11.7055 14.7365C11.994 14.9275 12.339 15.0133 12.684 14.9782C13.0271 14.9431 13.3507 14.7911 13.5943 14.5455Z"/><path fill-rule="evenodd" clip-rule="evenodd" d="M11.6876 3.40036L10 5.088L10.7071 5.7951L12.3947 4.10747L14.0824 5.7951L14.7895 5.088L13.1019 3.40036L14.7895 1.71272L14.0824 1.00562L12.3947 2.69325L10.7071 1.00562L10 1.71272L11.6876 3.40036Z"/></svg>