<svg width="16" height="16" viewBox="0 0 16 16" xmlns="http://www.w3.org/2000/svg" fill="currentColor"><path d="M12 9a3 3 0 1 0 0 6 3 3 0 0 0 0-6zm1.31 5L12 13l-1.3 1 .5-1.53-1.2-.83h1.47L12 10l.54 1.64H14l-1.2.83.51 1.53z"/><path fill-rule="evenodd" clip-rule="evenodd" d="M11.17 8.085A3.979 3.979 0 0 0 8.288 10.5H6.409v2.201c0 .081.028.15.09.212a.29.29 0 0 0 .213.09h1.413c.089.348.223.678.396.982-.066.01-.134.015-.203.015H6.712a1.285 1.285 0 0 1-.922-.379 1.303 1.303 0 0 1-.38-.92v-1.6c0-.479-.092-.921-.274-1.329a3.556 3.556 0 0 0-.776-1.114 4.689 4.689 0 0 1-1.006-1.437A4.187 4.187 0 0 1 3 5.5a4.432 4.432 0 0 1 .616-2.27c.197-.336.432-.64.705-.914a4.6 4.6 0 0 1 .911-.702c.338-.196.7-.348 1.084-.454a4.45 4.45 0 0 1 1.2-.16 4.476 4.476 0 0 1 2.276.614 4.475 4.475 0 0 1 1.622 1.616 4.438 4.438 0 0 1 .616 2.27c0 .617-.117 1.191-.353 1.721a4.537 4.537 0 0 1-.506.864z"/></svg>