<svg width="16" height="16" viewBox="0 0 16 16" fill="none" xmlns="http://www.w3.org/2000/svg">
<path fill-rule="evenodd" clip-rule="evenodd" d="M4.40024 3H7.48524C8.38698 3 9.25178 3.35821 9.88941 3.99584C10.527 4.63346 10.8852 5.49826 10.8852 6.4V6.605C10.8839 7.50587 10.5251 8.36939 9.88764 9.00593C9.25016 9.64247 8.38611 10 7.48524 10H7.00024V9H7.48524C8.11917 8.99868 8.72683 8.74662 9.17555 8.29883C9.62427 7.85105 9.8776 7.24392 9.88024 6.61V6.4C9.88025 5.76521 9.62877 5.15627 9.18084 4.70647C8.73291 4.25667 8.12503 4.00265 7.49024 4H4.40024C3.76372 4 3.15328 4.25286 2.70319 4.70294C2.48033 4.9258 2.30354 5.19038 2.18293 5.48156C2.06232 5.77274 2.00024 6.08483 2.00024 6.4V6.605C2.00175 7.17053 2.2034 7.71727 2.56948 8.14833C2.93556 8.57938 3.44242 8.86693 4.00024 8.96V9.96C3.17805 9.86262 2.41964 9.46858 1.86731 8.85181C1.31498 8.23503 1.00667 7.43791 1.00024 6.61V6.4C1.00157 5.49867 1.3602 4.63463 1.99754 3.9973C2.63488 3.35996 3.49891 3.00132 4.40024 3ZM12.0004 7.04V6.04C12.8243 6.1376 13.584 6.53307 14.1366 7.15194C14.6891 7.77081 14.9964 8.57036 15.0004 9.4V9.605C14.9977 10.5046 14.6392 11.3666 14.0031 12.0027C13.367 12.6388 12.505 12.9974 11.6054 13H8.51536C7.61622 12.9987 6.75421 12.6413 6.11796 12.0059C5.4817 11.3706 5.123 10.5091 5.12036 9.61V9.4C5.12036 8.49913 5.47789 7.63508 6.11443 6.9976C6.75097 6.36012 7.61449 6.00132 8.51536 6H9.00036V7H8.51536C7.87971 7.00132 7.27054 7.25477 6.82154 7.70471C6.37253 8.15465 6.12036 8.76435 6.12036 9.4V9.605C6.12168 10.2398 6.37444 10.8482 6.8233 11.2971C7.27216 11.7459 7.88057 11.9987 8.51536 12H11.6054C12.2393 11.9987 12.8469 11.7466 13.2957 11.2988C13.7444 10.851 13.9977 10.2439 14.0004 9.61V9.4C14 8.83361 13.7989 8.28568 13.4327 7.85358C13.0666 7.42149 12.559 7.13321 12.0004 7.04Z" fill="#424242"/>
</svg>
