<svg width="24" height="24" viewBox="0 0 24 24" xmlns="http://www.w3.org/2000/svg" fill="currentColor"><path fill-rule="evenodd" clip-rule="evenodd" d="M7.04 1.361l.139-.057H21.32l.14.057 1.178 1.179.057.139V16.82l-.057.14-1.179 1.178-.139.057H14V18a1.99 1.99 0 0 0-.548-1.375h7.673V2.875H7.375v7.282a5.73 5.73 0 0 0-1.571-.164V2.679l.057-.14L7.04 1.362zm9.531 9.452l-2.809 2.8a2 2 0 0 0-.348-.467l-.419-.42 2.236-2.235-3.606-3.694.813-.833 4.133 4.133v.716zM9.62 14.82l1.32-1.32L12 14.56l-1.72 1.72.22.22V18H12v1.45h-1.5v.1a5.888 5.888 0 0 1-.41 1.45L12 22.94 10.94 24l-1.65-1.65A4.308 4.308 0 0 1 6 24a4.31 4.31 0 0 1-3.29-1.65L1.06 24 0 22.94 1.91 21a5.889 5.889 0 0 1-.41-1.42v-.08H0V18h1.5v-1.5l.22-.22L0 14.56l1.06-1.06 1.32 1.32a3.73 3.73 0 0 1 7.24 0zm-2.029-.661A2.25 2.25 0 0 0 3.75 15.75h4.5a2.25 2.25 0 0 0-.659-1.591zm.449 7.38A3.33 3.33 0 0 0 9 19.5v-2.25H3v2.25a3.33 3.33 0 0 0 3 3 3.33 3.33 0 0 0 2.04-.96z"/></svg>