<svg width="16" height="16" viewBox="0 0 16 16" xmlns="http://www.w3.org/2000/svg" fill="currentColor"><path fill-rule="evenodd" clip-rule="evenodd" d="M13.85 4.44l-3.28-3.3-.35-.14H2.5l-.5.5V7h1V2h6v3.5l.5.5H13v1h1V4.8l-.15-.36zM10 5V2l3 3h-3zM2.5 8l-.5.5v6l.5.5h11l.5-.5v-6l-.5-.5h-11zM13 13v1H3V9h10v4zm-8-1h-.32v1H4v-3h1.06c.75 0 1.13.36 1.13 1a.94.94 0 0 1-.32.72A1.33 1.33 0 0 1 5 12zm-.06-1.45h-.26v.93h.26c.36 0 .54-.16.54-.47 0-.31-.18-.46-.54-.46zM9 12.58a1.48 1.48 0 0 0 .44-1.12c0-1-.53-1.46-1.6-1.46H6.78v3h1.06A1.6 1.6 0 0 0 9 12.58zm-1.55-.13v-1.9h.33a.94.94 0 0 1 .7.25.91.91 0 0 1 .25.67 1 1 0 0 1-.25.72.94.94 0 0 1-.69.26h-.34zm4.45-.61h-.97V13h-.68v-3h1.74v.55h-1.06v.74h.97v.55z"/></svg>