<svg width="16" height="16" viewBox="0 0 16 16" xmlns="http://www.w3.org/2000/svg" fill="currentColor"><path d="M7.50002 1C6.21445 1 4.95774 1.38123 3.88882 2.09546C2.8199 2.80969 1.98674 3.82485 1.49478 5.01257C1.00281 6.20029 0.874098 7.50719 1.1249 8.76807C1.37571 10.0289 1.99479 11.1872 2.90383 12.0962C3.81287 13.0052 4.97108 13.6243 6.23196 13.8751C7.49283 14.1259 8.79973 13.9972 9.98745 13.5052C11.1752 13.0133 12.1903 12.1801 12.9046 11.1112C13.6188 10.0423 14 8.78558 14 7.5C14 5.77609 13.3152 4.1228 12.0962 2.90381C10.8772 1.68482 9.22393 1 7.50002 1ZM7.50002 13C6.41223 13 5.34883 12.6775 4.44436 12.0731C3.53989 11.4688 2.83501 10.6097 2.41873 9.60474C2.00244 8.59974 1.89352 7.4939 2.10574 6.427C2.31796 5.36011 2.8418 4.38015 3.61099 3.61096C4.38018 2.84177 5.36013 2.31793 6.42703 2.10571C7.49392 1.89349 8.59977 2.00242 9.60476 2.4187C10.6098 2.83498 11.4688 3.53987 12.0731 4.44434C12.6775 5.34881 13 6.4122 13 7.5C13 8.95869 12.4205 10.3576 11.3891 11.389C10.3576 12.4205 8.95871 13 7.50002 13Z"/><circle cx="7.50002" cy="7.5" r="1"/></svg>