<svg width="16" height="16" viewBox="0 0 16 16" xmlns="http://www.w3.org/2000/svg" fill="currentColor"><path fill-rule="evenodd" clip-rule="evenodd" d="M11.6 2.677c.147-.31.356-.465.626-.465.248 0 .44.118.573.353.134.236.201.557.201.966 0 .443-.078.798-.235 1.067-.156.268-.365.402-.627.402-.237 0-.416-.125-.537-.374h-.008v.31H11V1h.593v1.677h.008zm-.016 1.1a.78.78 0 0 0 .107.426c.071.113.163.169.274.169.136 0 .24-.072.314-.216.075-.145.113-.35.113-.615 0-.22-.035-.39-.104-.514-.067-.124-.164-.187-.29-.187-.12 0-.219.062-.297.185a.886.886 0 0 0-.117.48v.272zM4.12 7.695L2 5.568l.662-.662 1.006 1v-1.51A1.39 1.39 0 0 1 5.055 3H7.4v.905H5.055a.49.49 0 0 0-.468.493l.007 1.5.949-.944.656.656-2.08 2.085zM9.356 4.93H10V3.22C10 2.408 9.685 2 9.056 2c-.135 0-.285.024-.45.073a1.444 1.444 0 0 0-.388.167v.665c.237-.203.487-.304.75-.304.261 0 .392.156.392.469l-.6.103c-.506.086-.76.406-.76.961 0 .263.061.473.183.631A.61.61 0 0 0 8.69 5c.29 0 .509-.16.657-.48h.009v.41zm.004-1.355v.193a.75.75 0 0 1-.12.436.368.368 0 0 1-.313.17.276.276 0 0 1-.22-.095.38.38 0 0 1-.08-.248c0-.222.11-.351.332-.389l.4-.067zM7 12.93h-.644v-.41h-.009c-.148.32-.367.48-.657.48a.61.61 0 0 1-.507-.235c-.122-.158-.183-.368-.183-.63 0-.556.254-.876.76-.962l.6-.103c0-.313-.13-.47-.392-.47-.263 0-.513.102-.75.305v-.665c.095-.063.224-.119.388-.167.165-.049.315-.073.45-.073.63 0 .944.407.944 1.22v1.71zm-.64-1.162v-.193l-.4.068c-.222.037-.333.166-.333.388 0 .1.027.183.08.248a.276.276 0 0 0 .22.095.368.368 0 0 0 .312-.17c.08-.116.12-.26.12-.436zM9.262 13c.321 0 .568-.058.738-.173v-.71a.9.9 0 0 1-.552.207.619.619 0 0 1-.5-.215c-.12-.145-.181-.345-.181-.598 0-.26.063-.464.189-.612a.644.644 0 0 1 .516-.223c.194 0 .37.069.528.207v-.749c-.129-.09-.338-.134-.626-.134-.417 0-.751.14-1.001.422-.249.28-.373.662-.373 1.148 0 .42.116.764.349 1.03.232.267.537.4.913.4zM2 9l1-1h9l1 1v5l-1 1H3l-1-1V9zm1 0v5h9V9H3zm3-2l1-1h7l1 1v5l-1 1V7H6z"/></svg>