<svg width="16" height="16" viewBox="0 0 16 16" xmlns="http://www.w3.org/2000/svg" fill="currentColor"><path fill-rule="evenodd" clip-rule="evenodd" d="M5 2.41L5.78 2L14.78 8V8.83L9 12.6833V11.4826L13.6 8.42L6 3.35V7H5V2.41Z"/><path fill-rule="evenodd" clip-rule="evenodd" d="M4.87227 7.80803C4.02215 7.7549 3.16715 7.9667 2.46857 8.44931C1.71646 8.9338 1.23555 9.6327 0.970474 10.4798C0.70131 11.2888 0.756984 12.1983 1.07646 12.997C1.39862 13.8024 1.98841 14.444 2.73373 14.8699C3.48976 15.3019 4.34985 15.407 5.20068 15.2475C6.06198 15.086 6.81126 14.6028 7.34443 13.963L7.34919 13.9568C7.87759 13.2698 8.20141 12.468 8.20141 11.6053C8.20141 10.5403 7.82698 9.63047 7.13464 8.88488L7.12941 8.87965C6.54444 8.29468 5.74055 7.8623 4.87227 7.80803ZM2.95059 9.18281C3.4627 8.81037 4.12262 8.66604 4.74312 8.71377L4.74421 8.71385C5.40049 8.76073 5.96469 9.04069 6.44119 9.51719C6.95689 10.0329 7.24402 10.7907 7.24402 11.5546V11.5618L7.24453 11.5689C7.29089 12.2179 7.0608 12.8292 6.67758 13.3579C6.25159 13.8765 5.68456 14.2071 5.06818 14.3493C4.45885 14.49 3.80161 14.3963 3.23776 14.0674C2.66626 13.7341 2.23786 13.259 1.95045 12.6362C1.67052 12.0297 1.66791 11.3722 1.85872 10.752L1.85983 10.7482C2.04996 10.0827 2.42849 9.56252 2.95059 9.18281ZM4.5051 11.0124L3.29191 9.7487L2.65431 10.3863L3.87316 11.6559L2.65431 12.9256L3.29191 13.5632L4.5051 12.2994L5.71829 13.5632L6.35589 12.9256L5.13704 11.6559L6.35589 10.3863L5.71829 9.7487L4.5051 11.0124Z"/></svg>