<?xml version="1.0" encoding="utf-8"?>
<svg viewBox="0 0 500 500" xmlns="http://www.w3.org/2000/svg">
  <defs>
    <linearGradient gradientUnits="userSpaceOnUse" x1="250" y1="60.691" x2="250" y2="439.31" id="gradient-1" gradientTransform="matrix(0.62884, 0.62884, -0.62884, 0.62884, 301.693542, -118.848228)">
      <stop offset="0" style="stop-color: rgb(2, 6, 21);"/>
      <stop offset="1" style="stop-color: rgb(18, 25, 53);"/>
    </linearGradient>
    <linearGradient gradientUnits="userSpaceOnUse" x1="10802.515" y1="7688.36" x2="10802.515" y2="13911.66" id="gradient-2" gradientTransform="matrix(-0.028, -0.028, 0.028, -0.028, 233.907039, 905.05849)">
      <stop offset="0" style="stop-color: rgb(0, 62, 149);"/>
      <stop offset="1" style="stop-color: rgb(70, 172, 255);"/>
    </linearGradient>
    <linearGradient gradientUnits="userSpaceOnUse" x1="10800.265" y1="7696.154" x2="10800.265" y2="13903.866" id="gradient-3" gradientTransform="matrix(0.044238, 0, 0, -0.044238, -212.162399, 727.776001)">
      <stop offset="0" style="stop-color: rgb(0, 62, 149);"/>
      <stop offset="1" style="stop-color: rgba(0, 0, 0, 1)"/>
    </linearGradient>
  </defs>
  <g style="" transform="matrix(1.205162, 0, 0, 1.205162, -51.290611, -51.290611)">
    <rect x="60.691" y="60.691" width="378.619" height="378.619" rx="40" ry="40" style="stroke: rgb(0, 0, 0); stroke-width: 0px; fill: url(#gradient-1);"/>
    <path d="M 171.945 127.03 L 146.511 112.346 L 146.511 112.729 C 146.511 204.245 146.511 295.758 146.511 387.272 L 146.511 387.655 L 146.843 387.463 C 171.219 373.391 195.594 359.317 219.97 345.243 L 220.08 345.18 L 220.08 315.683 L 172.056 343.411 L 172.056 343.257 C 172.056 271.245 172.057 199.414 172.056 127.221 L 172.056 127.094 L 171.945 127.03 Z M 220.329 184.461 C 258.277 206.37 295.767 228.015 333.714 249.924 L 333.846 250.001 L 333.714 250.077 C 303.976 267.246 274.704 284.147 244.967 301.316 L 244.856 301.379 L 244.856 330.876 L 245.188 330.684 C 283.291 308.684 321.398 286.685 359.5 264.685 L 384.738 250.116 L 384.937 250.001 L 359.5 235.317 C 313.028 208.486 266.559 181.655 220.085 154.824 L 219.969 154.758 L 194.536 140.074 L 194.536 140.457 C 194.536 193.902 194.536 247.346 194.536 300.792 L 194.536 301.175 L 220.086 286.424 L 220.196 286.36 L 220.196 184.384 L 220.329 184.461 Z M 244.856 272.123 L 284.445 249.266 L 244.856 226.406 L 244.856 272.123 Z" style="fill-opacity: 1; fill-rule: evenodd; stroke-width: 0px; fill: url(#gradient-2);" id="path14"/>
    <path d="M 171.846 127.202 L 146.711 112.69 L 146.711 112.729 C 146.711 204.245 146.71 295.758 146.71 387.272 L 146.71 387.31 L 146.743 387.291 C 171.119 373.218 195.495 359.145 219.87 345.071 L 219.881 345.065 L 219.881 345.065 L 219.881 345.065 L 219.881 316.028 L 171.857 343.755 L 171.857 343.602 C 171.857 271.475 171.857 199.414 171.857 127.221 L 171.857 127.209 L 171.846 127.202 Z M 171.79 127.221 L 171.812 127.234 L 171.812 127.285 C 171.813 199.457 171.812 271.602 171.812 343.794 L 171.812 343.832 L 219.837 316.105 L 219.837 345.039 L 219.793 345.065 C 195.436 359.128 171.23 373.103 146.887 387.157 L 146.754 387.233 L 146.754 387.08 C 146.754 295.63 146.755 204.372 146.755 112.92 L 146.755 112.767 L 171.768 127.209 L 171.79 127.221 Z M 220.13 184.116 C 258.178 206.084 296.065 227.956 334.112 249.924 L 334.244 250.001 L 334.112 250.077 C 304.397 267.234 274.803 284.32 245.066 301.488 L 245.055 301.494 L 245.055 330.531 L 245.088 330.512 C 283.191 308.512 321.298 286.512 359.401 264.512 L 384.539 250.001 L 359.401 235.489 C 312.928 208.658 266.46 181.828 219.986 154.997 L 219.87 154.931 L 194.735 140.419 L 194.735 140.457 C 194.735 193.902 194.735 247.346 194.735 300.792 L 194.735 300.83 L 219.986 286.251 L 219.997 286.245 L 219.997 286.252 L 220.014 286.235 L 219.997 286.245 L 219.997 286.245 L 219.997 184.04 L 220.13 184.116 Z M 219.953 286.194 L 219.953 286.219 L 219.931 286.232 L 194.78 300.753 L 194.78 300.6 C 194.78 247.219 194.779 194.029 194.779 140.649 L 194.779 140.496 L 219.848 154.969 L 219.964 155.035 C 266.438 181.866 312.906 208.697 359.378 235.527 L 384.451 250.001 L 359.378 264.474 C 321.276 286.474 283.279 308.41 245.232 330.378 L 245.1 330.454 L 245.1 301.545 L 245.1 301.52 L 245.122 301.507 L 245.144 301.494 C 274.862 284.337 304.563 267.189 334.3 250.02 L 334.333 250.001 L 334.3 249.982 C 296.197 227.982 258.09 205.982 219.986 183.982 L 219.953 183.963 L 219.953 286.194 Z M 284.047 249.266 L 245.055 226.75 L 245.055 271.778 L 284.047 249.266 Z M 245.1 226.827 L 283.959 249.266 L 245.1 271.701 L 245.1 226.827 Z" style="stroke-width: 0px; fill: url(#gradient-3);"/>
  </g>
</svg>