<svg xmlns="http://www.w3.org/2000/svg" width="2880" height="2880" viewBox="0 0 2880 2880">
  <defs id="defs6">
    <radialGradient id="RadialGradient1">
      <stop offset="0%" stop-color="#3da4eb"/>
      <stop offset="100%" stop-color="#196eae"/>
    </radialGradient>
  </defs>
  <g id="g10" transform="matrix(4.511777, 0, 0, -4.511777, -3433.283203, 6312.723633)" style="filter:none">
    <g id="g12" transform="scale(0.1)">
      <path d="m 8680.16,13575.4 -567.42,327.6 c 0,-2068.7 -0.01,-4137.33 -0.01,-6205.98 551.01,318.11 1102.02,636.24 1653.02,954.37 V 9306.6 L 8680.16,8679.83 c 0,1631.87 0.02,3263.67 0,4895.57 z M 9768.37,9981 v 2310.9 c 861.33,-497.3 1722.73,-994.6 2584.03,-1491.9 -672.2,-388.1 -1344.4,-776.2 -2016.6,-1164.29 V 8980.5 c 861.3,497.3 1722.7,994.6 2584,1491.9 l 567.5,327.6 -567.5,327.6 c -1050.5,606.5 -2100.9,1213 -3151.43,1819.5 l -2.62,1.5 -567.43,327.6 c 0,-1208.1 0.01,-2416.2 0.01,-3624.32 z m 1447.33,835.6 -879.9,508.1 v -1016.1 z" style="fill:url(#RadialGradient1);fill-opacity:1;fill-rule:evenodd;stroke:none" id="path14"/>
    </g>
  </g>
</svg>
